<svg
  xmlns="http://www.w3.org/2000/svg"
  xmlns:xlink="http://www.w3.org/1999/xlink"
  version="1.1"
  id="Layer_1"
  x="0px"
  y="0px"
  viewBox="0 0 504.808 504.808"
  style="enable-background: new 0 0 504.808 504.808; height: 3rem; width: 3rem"
  xml:space="preserve"
>
  <polyline
    style="fill: #43c996"
    points="104.96,58.152 103.976,58.792 0,162.768 77.68,241.312 116.184,201.92 116.184,491.528   388.184,491.528 388.184,201.92 426.688,241.312 504.368,162.76 400.384,58.776 399.416,58.152 399.568,57.952 399.472,57.856   399.416,58.152 310.792,27.528 193.568,27.528 104.96,58.152 "
  />
  <polyline
    style="fill: #37b588"
    points="104.96,58.152 103.976,58.792 24.496,187.256 77.68,241.312 116.184,201.92   116.184,491.528 388.184,491.528 388.184,201.92 426.688,241.312 504.368,162.76 400.384,58.776 399.416,58.152 399.568,57.952   399.472,57.856 399.416,58.152 310.792,27.528 193.568,27.528 104.96,58.152 "
  />
  <polyline
    style="fill: #26a587"
    points="196.184,491.528 388.184,491.528 388.184,201.92 426.688,241.312 504.808,162.76   399.496,57.856 399.624,57.952 399.624,57.952 399.496,57.856 399.496,57.856 310.792,27.528 196.184,27.528 "
  />
  <polyline
    style="fill: #199387"
    points="386.424,201.92 425.816,241.312 504.368,162.76 400.384,58.776 399.568,57.952   399.568,57.952 399.472,57.856 399.416,57.904 "
  />
  <path
    style="fill: #535859"
    d="M294.792,19.528h-85.224l-22.936,10.168c1.08,1.968,70.312,75.952,65.552,75.952  c-4.76,0,64.464-73.92,65.552-75.888L294.792,19.528z"
  />
  <path
    style="fill: #3c4142"
    d="M252.184,35.104c-19.568,0-37.24,5.16-49.944,13.456c18.496,22.488,47.168,57.512,49.944,63.92  c2.776-6.408,31.448-41.44,49.944-63.92C289.432,40.264,271.76,35.104,252.184,35.104z"
  />
  <polygon
    style="fill: #199387"
    points="212.776,74.448 251.44,113.776 239.928,62.136 "
  />
  <polygon
    style="fill: #b6cdd3"
    points="207.808,86.264 177.616,32.056 204.184,13.28 239.928,62.136 "
  />
  <polygon
    style="fill: #9eb3ba"
    points="207.808,86.264 204.112,32.056 204.184,13.28 239.928,62.136 "
  />
  <polygon
    style="fill: #199387"
    points="291.6,74.448 252.936,113.776 264.448,62.136 "
  />
  <polygon
    style="fill: #9eb3ba"
    points="296.568,86.264 326.76,32.056 300.184,13.28 264.448,62.136 "
  />
  <g>
    <polygon
      style="fill: #b6cdd3"
      points="296.568,86.264 300.264,32.056 300.184,13.28 264.448,62.136  "
    />
    <circle style="fill: #b6cdd3" cx="252.184" cy="125.016" r="5" />
  </g>
  <path
    style="fill: #9eb3ba"
    d="M248.648,121.48c1.96-1.952,5.12-1.968,7.064,0c1.96,1.952,1.96,5.112,0,7.064"
  />
  <circle style="fill: #b6cdd3" cx="252.184" cy="153.776" r="5" />
  <path
    style="fill: #9eb3ba"
    d="M248.648,150.248c1.96-1.952,5.12-1.968,7.064,0c1.96,1.952,1.96,5.112,0,7.064"
  />
  <path
    style="fill: #9ad8ca"
    d="M339.632,169.104c-7.184,0-13-5.816-13-13c0-1.544,0.312-3.016,0.816-4.392  c-4.424,2.08-7.488,6.528-7.488,11.72c0,7.184,5.824,13,13,13c5.624,0,10.376-3.592,12.184-8.592  C343.464,168.64,341.6,169.104,339.632,169.104z"
  />
  <g></g>
  <g></g>
  <g></g>
  <g></g>
  <g></g>
  <g></g>
  <g></g>
  <g></g>
  <g></g>
  <g></g>
  <g></g>
  <g></g>
  <g></g>
  <g></g>
  <g></g>
</svg>
