<?xml version="1.0" encoding="iso-8859-1"?>
<!-- Generator: Adobe Illustrator 16.0.0, SVG Export Plug-In . SVG Version: 6.00 Build 0)  -->
<!DOCTYPE svg PUBLIC "-//W3C//DTD SVG 1.1//EN" "http://www.w3.org/Graphics/SVG/1.1/DTD/svg11.dtd">
<svg version="1.1" id="Capa_1" xmlns="http://www.w3.org/2000/svg" xmlns:xlink="http://www.w3.org/1999/xlink" x="0px" y="0px"
	 width="420px" height="420px" viewBox="0 0 420 420" style="enable-background:new 0 0 420 420;" xml:space="preserve">
<g>
	<g>
		<g>
			<path  fill="#3fa9f5"  d="M66.258,352.934l81.168-33.715l19.008-16.687c5.015-4.403,12.419-4.094,17.078,0.722l26.502,27.384l26.425-27.375
				c4.653-4.823,12.069-5.148,17.09-0.729l19.008,16.687l81.167,33.711c9.174,3.801,15.127,18.146,19.092,35.545
				C402.298,350.801,420,302.702,420,250.29c0-120.821-94.02-218.766-210-218.766C94.02,31.524,0,129.469,0,250.29
				c0,52.401,17.694,100.494,47.188,138.164C51.146,371.069,57.092,356.737,66.258,352.934z M210.023,93.054
				c53.787,0,81.229,28.425,81.229,83.202c0,123.167-81.229,119.737-81.229,119.737c-49.896,0.793-80.5-44.718-81.271-119.737
				C128.221,121.48,157.365,93.054,210.023,93.054z"/>
		</g>
	</g>
</g>
<g>
</g>
<g>
</g>
<g>
</g>
<g>
</g>
<g>
</g>
<g>
</g>
<g>
</g>
<g>
</g>
<g>
</g>
<g>
</g>
<g>
</g>
<g>
</g>
<g>
</g>
<g>
</g>
<g>
</g>
</svg>
